<?xml version="1.0" encoding="UTF-8"?>
<!DOCTYPE svg PUBLIC "-//W3C//DTD SVG 1.0//EN" "http://www.w3.org/TR/2001/REC-SVG-20010904/DTD/svg10.dtd">
<!-- Creator: CorelDRAW 2018 (64-Bit) -->
<svg xmlns="http://www.w3.org/2000/svg" xml:space="preserve" width="250px" height="120px" version="1.0" style="shape-rendering:geometricPrecision; text-rendering:geometricPrecision; image-rendering:optimizeQuality; fill-rule:evenodd; clip-rule:evenodd"
viewBox="0 0 250 120"
 xmlns:xlink="http://www.w3.org/1999/xlink">
 <defs>
  <style type="text/css">
   <![CDATA[
    .fil0 {fill:white}
   ]]>
  </style>
 </defs>
 <g id="Слой_x0020_1">
  <metadata id="CorelCorpID_0Corel-Layer"/>
  <g>
   <path class="fil0" d="M94.69 65.36l0 0.49 -0.6 0c-0.51,0 -0.78,0.15 -0.81,0.45 -0.02,0.3 -0.04,1.36 -0.04,3.17l0.01 1.5c0.01,1 0.02,1.55 0.05,1.64 0.03,0.1 0.11,0.17 0.26,0.24 0.14,0.06 0.32,0.09 0.53,0.09l0.6 0 0 0.49c-0.9,-0.03 -1.69,-0.05 -2.36,-0.05 -0.59,0 -1.25,0.02 -1.99,0.05l0 -0.49 0.61 0c0.38,0 0.62,-0.08 0.71,-0.24 0.09,-0.16 0.13,-0.84 0.13,-2.06l0 -3.89 -1.45 3.05c-0.57,1.19 -1.1,2.41 -1.59,3.68l-0.56 0c-0.22,-0.6 -0.48,-1.24 -0.79,-1.92l-0.53 -1.22 -1.59 -3.78 0 3.98 0.01 1.29c0,0.44 0.02,0.7 0.04,0.77 0.02,0.08 0.09,0.16 0.21,0.23 0.12,0.07 0.31,0.11 0.57,0.11l0.6 0 0 0.49c-0.02,0 -0.18,-0.01 -0.48,-0.01 -0.68,-0.03 -1.16,-0.04 -1.44,-0.04 -0.21,0 -0.75,0.02 -1.62,0.05l0 -0.49 0.61 0c0.43,0 0.68,-0.1 0.74,-0.31 0.06,-0.22 0.1,-1.25 0.1,-3.1 0,-2 -0.03,-3.12 -0.09,-3.34 -0.06,-0.23 -0.31,-0.34 -0.75,-0.34l-0.61 0 0 -0.49 0.46 0.02c0.59,0.02 0.9,0.03 0.92,0.03 0.01,0 0.24,-0.01 0.71,-0.03 0.47,-0.02 0.71,-0.04 0.71,-0.04 0.02,0 0.11,0.01 0.27,0.02 0.49,1.29 0.96,2.43 1.39,3.42l1.26 2.9 1.45 -3.13c0.56,-1.22 0.91,-1.99 1.05,-2.34l0.35 -0.85c0.38,0.04 0.72,0.05 1.01,0.05 0.23,0 0.88,-0.01 1.94,-0.05zm0.91 3.98c0,-0.79 0.18,-1.49 0.54,-2.13 0.37,-0.63 0.88,-1.13 1.53,-1.48 0.66,-0.36 1.41,-0.54 2.24,-0.54 1.21,0 2.18,0.36 2.91,1.07 0.73,0.72 1.09,1.67 1.09,2.87 0,1.41 -0.47,2.53 -1.42,3.36 -0.85,0.74 -1.86,1.12 -3.05,1.12 -1.13,0 -2.06,-0.39 -2.77,-1.15 -0.71,-0.77 -1.07,-1.81 -1.07,-3.12zm1.61 -0.6c0,1.17 0.24,2.17 0.72,3.01 0.48,0.83 1.17,1.24 2.07,1.24 0.69,0 1.25,-0.26 1.67,-0.78 0.42,-0.52 0.64,-1.31 0.64,-2.38 0,-0.86 -0.13,-1.6 -0.38,-2.23 -0.25,-0.63 -0.58,-1.09 -0.99,-1.37 -0.41,-0.29 -0.87,-0.43 -1.37,-0.43 -0.45,0 -0.86,0.11 -1.22,0.34 -0.36,0.23 -0.62,0.53 -0.8,0.91 -0.23,0.52 -0.34,1.08 -0.34,1.69zm14.22 3.49l0.23 0.2 -0.34 0.55c-0.39,0.21 -0.79,0.36 -1.2,0.47 -0.41,0.1 -0.83,0.16 -1.26,0.16 -0.83,0 -1.54,-0.16 -2.12,-0.48 -0.59,-0.32 -1.04,-0.78 -1.36,-1.38 -0.31,-0.61 -0.48,-1.32 -0.48,-2.15 0,-0.74 0.13,-1.37 0.37,-1.92 0.25,-0.54 0.59,-0.97 1.03,-1.27 0.44,-0.31 0.99,-0.61 1.65,-0.91 0.47,-0.21 0.99,-0.31 1.56,-0.31 0.44,0 0.82,0.03 1.14,0.11 0.31,0.06 0.65,0.19 1.01,0.37 -0.14,0.75 -0.21,1.51 -0.22,2.26l-0.54 0 0 -0.43c0,-0.36 -0.06,-0.62 -0.16,-0.77 -0.11,-0.15 -0.35,-0.3 -0.72,-0.45 -0.38,-0.15 -0.79,-0.22 -1.23,-0.22 -0.77,0 -1.36,0.24 -1.78,0.7 -0.41,0.47 -0.62,1.17 -0.62,2.11 0,1.2 0.31,2.16 0.92,2.88 0.55,0.66 1.27,0.98 2.14,0.98 0.34,0 0.67,-0.04 1,-0.13 0.33,-0.08 0.66,-0.21 0.98,-0.37zm4.06 -3.07l0 1.09c0,1.43 0.04,2.24 0.13,2.42 0.09,0.18 0.38,0.27 0.86,0.27l0.51 0 0 0.49c-0.01,0 -0.17,-0.01 -0.46,-0.01 -0.81,-0.03 -1.35,-0.04 -1.62,-0.04 -0.06,0 -0.81,0.02 -2.27,0.05l0 -0.49 0.49 0c0.5,0 0.77,-0.11 0.83,-0.35 0.05,-0.23 0.08,-1.01 0.08,-2.34l0 -2.53c0,-0.9 -0.04,-1.44 -0.12,-1.61 -0.08,-0.17 -0.32,-0.26 -0.73,-0.26l-0.62 0 0 -0.49c0.74,0.04 1.4,0.05 1.99,0.05 0.89,0 1.69,-0.01 2.39,-0.05l0 0.49 -0.64 0c-0.19,0 -0.36,0.03 -0.52,0.09 -0.15,0.06 -0.25,0.15 -0.27,0.28 -0.02,0.12 -0.03,0.65 -0.03,1.57l0 0.89 0.1 0.06c0.74,-0.54 1.61,-1.29 2.59,-2.23l1.22 -1.15 1.71 0 0 0.49 -0.31 0.01c-0.22,0 -0.59,0.16 -1.09,0.49 -0.51,0.33 -1.41,1.03 -2.72,2.11 0.89,0.82 2.03,2.03 3.41,3.65 0.46,0.55 0.87,0.83 1.25,0.83l0 0.49c-0.03,0 -0.15,-0.01 -0.34,-0.01 -0.41,-0.03 -0.65,-0.04 -0.73,-0.04 -0.13,0 -0.47,0.02 -1.02,0.05 -1.53,-1.94 -2.86,-3.36 -3.97,-4.27l-0.1 0zm16.96 -3.8l0 0.49 -0.61 0c-0.51,0 -0.78,0.15 -0.81,0.46 -0.02,0.3 -0.03,1.33 -0.03,3.08l0.01 2.02c0.01,0.68 0.02,1.07 0.04,1.16 0.02,0.09 0.08,0.17 0.19,0.25 0.11,0.08 0.31,0.12 0.6,0.12l0.61 0 0 0.49c-0.91,-0.03 -1.7,-0.05 -2.37,-0.05 -0.58,0 -1.24,0.02 -1.98,0.05l0 -0.49 0.61 0c0.38,0 0.61,-0.07 0.7,-0.21 0.09,-0.14 0.14,-0.61 0.14,-1.4l0 -3.75c0,-0.58 0.04,-1.02 0.12,-1.32 -0.2,0.31 -0.4,0.61 -0.6,0.88 -0.28,0.4 -0.52,0.74 -0.71,1.05l-1.9 2.91c-0.79,1.21 -1.37,2.01 -1.76,2.41 -0.17,0.02 -0.6,0.09 -1.28,0.22 0.05,-1.27 0.08,-2.49 0.08,-3.65 0,-2.37 -0.02,-3.66 -0.08,-3.89 -0.05,-0.23 -0.31,-0.34 -0.77,-0.34l-0.61 0 0 -0.49c0.75,0.04 1.41,0.05 1.99,0.05 0.62,0 1.41,-0.01 2.37,-0.05l0 0.49 -0.61 0c-0.17,0 -0.34,0.03 -0.5,0.09 -0.16,0.05 -0.26,0.14 -0.29,0.26 -0.03,0.12 -0.05,0.58 -0.05,1.37l0 3.67c0,0.37 -0.02,0.69 -0.06,0.97 0.21,-0.19 0.73,-0.92 1.57,-2.19l1.25 -1.9c0.23,-0.35 0.81,-1.27 1.75,-2.76 0.49,0.04 0.88,0.05 1.18,0.05 0.17,0 0.77,-0.01 1.81,-0.05zm1.13 2.39l-0.6 0c0.02,-0.29 0.02,-0.52 0.02,-0.72 0,-0.22 -0.03,-0.78 -0.09,-1.69 1.16,0.04 1.88,0.06 2.18,0.06l3.68 0c0.42,0 1.15,-0.02 2.18,-0.06 -0.06,0.91 -0.09,1.47 -0.09,1.69 0,0.2 0.01,0.43 0.02,0.72l-0.6 0c-0.06,-0.99 -0.16,-1.52 -0.31,-1.61 -0.14,-0.09 -0.88,-0.13 -2.23,-0.13 -0.03,0.35 -0.05,0.69 -0.05,1.01l0 0.75 -0.02 1.47 0 1.99c0,0.75 0.01,1.18 0.03,1.3 0.02,0.12 0.09,0.22 0.21,0.3 0.12,0.07 0.32,0.11 0.6,0.11l0.61 0 0 0.49c-0.92,-0.03 -1.71,-0.05 -2.38,-0.05 -0.58,0 -1.24,0.02 -1.99,0.05l0 -0.49 0.62 0c0.37,0 0.61,-0.07 0.7,-0.22 0.1,-0.14 0.15,-0.59 0.15,-1.34l0 -2.14c0,-1.5 -0.03,-2.58 -0.09,-3.23l-0.44 0c-1.06,0 -1.66,0.04 -1.8,0.13 -0.15,0.09 -0.25,0.63 -0.31,1.61zm15.35 0.91c-0.01,-1.39 -0.04,-2.2 -0.08,-2.44 -0.04,-0.25 -0.29,-0.37 -0.76,-0.37l-0.61 0 0 -0.49c0.75,0.04 1.41,0.05 1.99,0.05 0.61,0 1.4,-0.01 2.36,-0.05l0 0.49 -0.61 0c-0.51,0 -0.78,0.15 -0.8,0.46 -0.03,0.3 -0.04,1.33 -0.04,3.08l0.02 2.02c0,0.68 0.02,1.07 0.03,1.16 0.02,0.09 0.08,0.17 0.19,0.25 0.12,0.08 0.31,0.12 0.6,0.12l0.61 0 0 0.49c-0.91,-0.03 -1.7,-0.05 -2.36,-0.05 -0.58,0 -1.24,0.02 -1.99,0.05l0 -0.49 0.61 0c0.44,0 0.68,-0.1 0.74,-0.3 0.05,-0.2 0.08,-0.62 0.08,-1.26 0,-0.49 0.01,-1.18 0.02,-2.05l-2.29 -0.04 -2.3 0.04 0.01 2.68c0,0.36 0.02,0.58 0.06,0.66 0.04,0.07 0.13,0.14 0.27,0.19 0.14,0.06 0.31,0.08 0.5,0.08l0.61 0 0 0.49c-0.92,-0.03 -1.71,-0.05 -2.38,-0.05 -0.58,0 -1.24,0.02 -1.99,0.05l0 -0.49 0.62 0c0.44,0 0.69,-0.1 0.75,-0.31 0.06,-0.22 0.1,-1.25 0.1,-3.1 0,-2 -0.03,-3.12 -0.09,-3.34 -0.06,-0.23 -0.31,-0.34 -0.76,-0.34l-0.62 0 0 -0.49c0.75,0.04 1.42,0.05 1.99,0.05 0.62,0 1.41,-0.01 2.38,-0.05l0 0.49 -0.61 0c-0.18,0 -0.35,0.03 -0.51,0.09 -0.16,0.06 -0.25,0.14 -0.28,0.25 -0.03,0.11 -0.04,0.57 -0.04,1.37l-0.01 1.1c0.77,0.06 1.74,0.09 2.91,0.09 0.73,0 1.29,-0.03 1.68,-0.09zm4.17 4.77l0 -0.38c0.41,-0.16 0.64,-0.33 0.69,-0.51 0.05,-0.17 0.08,-1.17 0.08,-3 0,-2.02 -0.03,-3.14 -0.08,-3.36 -0.06,-0.22 -0.31,-0.33 -0.76,-0.33l-0.61 0 0 -0.49c0.76,0.04 1.42,0.05 2,0.05 0.61,0 1.4,-0.01 2.37,-0.05l0 0.49 -0.61 0c-0.5,0 -0.77,0.14 -0.8,0.43 -0.04,0.28 -0.06,0.98 -0.06,2.1l0 0.35c0.59,-0.01 1.01,-0.01 1.24,-0.01 1.17,0 2.08,0.17 2.73,0.53 0.65,0.36 0.97,0.89 0.97,1.6 0,0.81 -0.4,1.43 -1.2,1.87 -0.8,0.44 -1.79,0.66 -2.96,0.66l-1.91 0 -0.38 0.02c-0.31,0.02 -0.54,0.03 -0.71,0.03zm2.22 -4.16l0 1.95c0,0.64 0.02,1.17 0.04,1.61 0.28,0.04 0.51,0.06 0.68,0.06 1.78,0 2.67,-0.62 2.67,-1.86 0,-0.61 -0.23,-1.05 -0.68,-1.34 -0.45,-0.29 -1.06,-0.43 -1.81,-0.43l-0.9 0.01zm5 -3.42l0 -0.49c0.75,0.04 1.41,0.05 1.99,0.05 0.62,0 1.41,-0.01 2.37,-0.05l0 0.49 -0.6 0c-0.52,0 -0.78,0.15 -0.81,0.45 -0.03,0.3 -0.04,1.36 -0.04,3.17l0.01 1.5c0.01,1 0.02,1.55 0.05,1.64 0.02,0.1 0.11,0.17 0.25,0.24 0.15,0.06 0.33,0.09 0.54,0.09l0.6 0 0 0.49c-0.91,-0.03 -1.7,-0.05 -2.37,-0.05 -0.58,0 -1.25,0.02 -1.99,0.05l0 -0.49 0.61 0c0.45,0 0.71,-0.11 0.77,-0.33 0.05,-0.22 0.08,-1.32 0.08,-3.29 0,-1.87 -0.03,-2.91 -0.08,-3.13 -0.06,-0.23 -0.32,-0.34 -0.77,-0.34l-0.61 0zm6.77 3.46c0.03,1.12 0.32,1.97 0.86,2.55 0.55,0.58 1.26,0.87 2.15,0.87 0.39,0 0.79,-0.06 1.18,-0.2 0.39,-0.13 0.78,-0.32 1.17,-0.59l0.14 0.13 -0.27 0.71c-0.47,0.28 -0.96,0.48 -1.46,0.62 -0.5,0.14 -1.01,0.21 -1.54,0.21 -1.16,0 -2.08,-0.37 -2.79,-1.1 -0.71,-0.73 -1.06,-1.72 -1.06,-2.97 0,-0.96 0.19,-1.79 0.59,-2.48 0.26,-0.47 0.75,-0.89 1.45,-1.29 0.7,-0.39 1.39,-0.58 2.05,-0.58 1.01,0 1.81,0.29 2.39,0.88 0.59,0.6 0.89,1.43 0.89,2.49l-0.02 0.5c-0.38,0.09 -0.73,0.15 -1.07,0.18 -0.61,0.05 -1.45,0.07 -2.53,0.07l-2.13 0zm0.02 -0.63c0.88,0.04 1.85,0.05 2.92,0.05 0.42,0 0.84,-0.02 1.24,-0.06l0 -0.48c0,-0.5 -0.1,-0.97 -0.3,-1.42 -0.13,-0.28 -0.35,-0.51 -0.66,-0.7 -0.31,-0.18 -0.68,-0.27 -1.09,-0.27 -0.63,0 -1.14,0.23 -1.52,0.7 -0.39,0.47 -0.58,1.19 -0.59,2.18zm17.51 3.55l0.23 0.2 -0.35 0.55c-0.38,0.21 -0.78,0.36 -1.19,0.47 -0.41,0.1 -0.83,0.16 -1.26,0.16 -0.83,0 -1.54,-0.16 -2.13,-0.48 -0.58,-0.32 -1.03,-0.78 -1.35,-1.38 -0.32,-0.61 -0.48,-1.32 -0.48,-2.15 0,-0.74 0.13,-1.37 0.37,-1.92 0.24,-0.54 0.59,-0.97 1.03,-1.27 0.44,-0.31 0.99,-0.61 1.65,-0.91 0.47,-0.21 0.99,-0.31 1.56,-0.31 0.44,0 0.82,0.03 1.13,0.11 0.32,0.06 0.66,0.19 1.02,0.37 -0.14,0.75 -0.21,1.51 -0.22,2.26l-0.55 0 0 -0.43c0,-0.36 -0.05,-0.62 -0.15,-0.77 -0.11,-0.15 -0.35,-0.3 -0.73,-0.45 -0.37,-0.15 -0.78,-0.22 -1.22,-0.22 -0.77,0 -1.36,0.24 -1.78,0.7 -0.42,0.47 -0.62,1.17 -0.62,2.11 0,1.2 0.31,2.16 0.92,2.88 0.55,0.66 1.26,0.98 2.13,0.98 0.35,0 0.68,-0.04 1.01,-0.13 0.33,-0.08 0.66,-0.21 0.98,-0.37zm2.95 -2.92c0.03,1.12 0.32,1.97 0.87,2.55 0.54,0.58 1.26,0.87 2.14,0.87 0.4,0 0.79,-0.06 1.18,-0.2 0.4,-0.13 0.79,-0.32 1.17,-0.59l0.15 0.13 -0.28 0.71c-0.47,0.28 -0.96,0.48 -1.45,0.62 -0.5,0.14 -1.02,0.21 -1.55,0.21 -1.15,0 -2.08,-0.37 -2.79,-1.1 -0.7,-0.73 -1.06,-1.72 -1.06,-2.97 0,-0.96 0.2,-1.79 0.6,-2.48 0.26,-0.47 0.74,-0.89 1.45,-1.29 0.7,-0.39 1.38,-0.58 2.05,-0.58 1,0 1.8,0.29 2.39,0.88 0.59,0.6 0.88,1.43 0.88,2.49l-0.02 0.5c-0.37,0.09 -0.73,0.15 -1.07,0.18 -0.61,0.05 -1.45,0.07 -2.53,0.07l-2.13 0zm0.02 -0.63c0.88,0.04 1.86,0.05 2.92,0.05 0.43,0 0.84,-0.02 1.24,-0.06l0 -0.48c0,-0.5 -0.1,-0.97 -0.3,-1.42 -0.13,-0.28 -0.34,-0.51 -0.66,-0.7 -0.31,-0.18 -0.67,-0.27 -1.08,-0.27 -0.64,0 -1.15,0.23 -1.53,0.7 -0.38,0.47 -0.58,1.19 -0.59,2.18zm7.08 -0.93l-0.6 0c0.01,-0.29 0.02,-0.52 0.02,-0.72 0,-0.22 -0.03,-0.78 -0.09,-1.69 1.15,0.04 1.88,0.06 2.18,0.06l3.67 0c0.42,0 1.15,-0.02 2.19,-0.06 -0.06,0.91 -0.09,1.47 -0.09,1.69 0,0.2 0,0.43 0.02,0.72l-0.6 0c-0.06,-0.99 -0.16,-1.52 -0.31,-1.61 -0.14,-0.09 -0.89,-0.13 -2.23,-0.13 -0.03,0.35 -0.05,0.69 -0.05,1.01l0 0.75 -0.03 1.47 0 1.99c0,0.75 0.01,1.18 0.04,1.3 0.02,0.12 0.09,0.22 0.21,0.3 0.12,0.07 0.32,0.11 0.59,0.11l0.61 0 0 0.49c-0.91,-0.03 -1.7,-0.05 -2.37,-0.05 -0.58,0 -1.25,0.02 -1.99,0.05l0 -0.49 0.61 0c0.38,0 0.62,-0.07 0.71,-0.22 0.1,-0.14 0.14,-0.59 0.14,-1.34l0 -2.14c0,-1.5 -0.03,-2.58 -0.08,-3.23l-0.44 0c-1.06,0 -1.67,0.04 -1.81,0.13 -0.14,0.09 -0.24,0.63 -0.3,1.61zm10.75 1.41l0 1.09c0,1.43 0.05,2.24 0.14,2.42 0.09,0.18 0.38,0.27 0.86,0.27l0.51 0 0 0.49c-0.02,0 -0.17,-0.01 -0.47,-0.01 -0.8,-0.03 -1.34,-0.04 -1.61,-0.04 -0.06,0 -0.82,0.02 -2.27,0.05l0 -0.49 0.49 0c0.5,0 0.77,-0.11 0.82,-0.35 0.06,-0.23 0.08,-1.01 0.08,-2.34l0 -2.53c0,-0.9 -0.03,-1.44 -0.11,-1.61 -0.08,-0.17 -0.32,-0.26 -0.74,-0.26l-0.61 0 0 -0.49c0.73,0.04 1.4,0.05 1.99,0.05 0.89,0 1.69,-0.01 2.39,-0.05l0 0.49 -0.64 0c-0.19,0 -0.36,0.03 -0.52,0.09 -0.16,0.06 -0.25,0.15 -0.27,0.28 -0.02,0.12 -0.04,0.65 -0.04,1.57l0 0.89 0.11 0.06c0.74,-0.54 1.61,-1.29 2.58,-2.23l1.23 -1.15 1.71 0 0 0.49 -0.31 0.01c-0.22,0 -0.59,0.16 -1.09,0.49 -0.51,0.33 -1.41,1.03 -2.72,2.11 0.89,0.82 2.03,2.03 3.41,3.65 0.45,0.55 0.87,0.83 1.25,0.83l0 0.49c-0.04,0 -0.15,-0.01 -0.34,-0.01 -0.41,-0.03 -0.65,-0.04 -0.73,-0.04 -0.14,0 -0.48,0.02 -1.02,0.05 -1.53,-1.94 -2.86,-3.36 -3.97,-4.27l-0.11 0zm16.96 -3.8l0 0.49 -0.6 0c-0.51,0 -0.78,0.15 -0.81,0.46 -0.02,0.3 -0.04,1.33 -0.04,3.08l0.02 2.02c0.01,0.68 0.02,1.07 0.04,1.16 0.01,0.09 0.08,0.17 0.19,0.25 0.11,0.08 0.31,0.12 0.6,0.12l0.6 0 0 0.49c-0.9,-0.03 -1.69,-0.05 -2.36,-0.05 -0.58,0 -1.24,0.02 -1.99,0.05l0 -0.49 0.62 0c0.37,0 0.61,-0.07 0.7,-0.21 0.09,-0.14 0.13,-0.61 0.13,-1.4l0 -3.75c0,-0.58 0.05,-1.02 0.13,-1.32 -0.2,0.31 -0.4,0.61 -0.6,0.88 -0.28,0.4 -0.52,0.74 -0.72,1.05l-1.89 2.91c-0.79,1.21 -1.37,2.01 -1.76,2.41 -0.18,0.02 -0.61,0.09 -1.29,0.22 0.06,-1.27 0.09,-2.49 0.09,-3.65 0,-2.37 -0.03,-3.66 -0.08,-3.89 -0.06,-0.23 -0.31,-0.34 -0.77,-0.34l-0.62 0 0 -0.49c0.76,0.04 1.42,0.05 2,0.05 0.61,0 1.41,-0.01 2.37,-0.05l0 0.49 -0.61 0c-0.17,0 -0.34,0.03 -0.5,0.09 -0.16,0.05 -0.26,0.14 -0.29,0.26 -0.04,0.12 -0.05,0.58 -0.05,1.37l0 3.67c0,0.37 -0.02,0.69 -0.06,0.97 0.21,-0.19 0.73,-0.92 1.57,-2.19l1.25 -1.9c0.23,-0.35 0.81,-1.27 1.75,-2.76 0.48,0.04 0.88,0.05 1.18,0.05 0.17,0 0.77,-0.01 1.8,-0.05zm-133.1 -24.34l0 4.34c0,0.75 0.03,1.63 0.08,2.64 0.06,1.41 0.12,2.19 0.16,2.34 0.04,0.15 0.19,0.3 0.45,0.46 0.25,0.15 0.67,0.23 1.25,0.23l1.06 0 0 0.99c-1.35,-0.06 -2.65,-0.1 -3.9,-0.1 -1.22,0 -2.95,0.04 -5.21,0.1l0 -0.99 0.96 0c1.09,0 1.73,-0.18 1.92,-0.55 0.2,-0.37 0.3,-2.05 0.3,-5.05l0 -9.37c0,-2.71 -0.1,-4.25 -0.3,-4.62 -0.2,-0.37 -0.78,-0.55 -1.73,-0.55l-1.15 0 0 -0.99c1.71,0.06 3.3,0.1 4.77,0.1 1.48,0 2.93,-0.04 4.34,-0.1l0 0.99 -0.67 0c-0.96,0 -1.56,0.08 -1.78,0.23 -0.23,0.16 -0.37,0.41 -0.42,0.76 -0.08,0.58 -0.13,1.96 -0.13,4.16l0 3.55c1.85,0.06 4.2,0.1 7.05,0.1 2.42,0 4.38,-0.04 5.89,-0.1l0 -3.03c0,-1.78 -0.06,-3.27 -0.18,-4.47 -0.04,-0.43 -0.18,-0.73 -0.42,-0.92 -0.24,-0.19 -0.73,-0.28 -1.46,-0.28l-1.12 0 0 -0.99c1.59,0.06 3.09,0.1 4.51,0.1 1.54,0 3.14,-0.04 4.8,-0.1l0 0.99 -1.18 0c-0.81,0 -1.32,0.09 -1.54,0.26 -0.22,0.18 -0.36,0.5 -0.4,0.97 -0.05,0.47 -0.07,1.96 -0.07,4.45l0 8.59c0,3.18 0.09,4.95 0.27,5.32 0.18,0.37 0.75,0.55 1.7,0.55l1.22 0 0 0.99c-1.44,-0.06 -2.92,-0.1 -4.44,-0.1 -1.74,0 -3.37,0.04 -4.87,0.1l0 -0.99 1.07 0c0.79,0 1.3,-0.09 1.53,-0.27 0.22,-0.18 0.36,-0.52 0.41,-1.02 0.12,-1.07 0.17,-2.62 0.17,-4.67l0 -4.05c-1.46,-0.06 -3.33,-0.09 -5.59,-0.09 -3.24,0 -5.69,0.03 -7.35,0.09zm21.93 0.19l0.02 -1.05 -0.02 -1.08 1.7 -0.96c0.77,-0.43 1.44,-0.73 2.02,-0.89 0.58,-0.17 1.19,-0.25 1.84,-0.25 1.43,0 2.59,0.31 3.47,0.96 0.88,0.64 1.4,1.46 1.58,2.46 0.12,0.74 0.2,2.59 0.23,5.55 0.02,2.79 0.08,4.32 0.19,4.62 0.1,0.29 0.36,0.43 0.77,0.43l1.21 0 0 1.02c-1.19,-0.06 -2.01,-0.1 -2.48,-0.1 -0.58,0 -1.36,0.04 -2.34,0.1l0.02 -1.38c0,-0.44 -0.01,-0.89 -0.02,-1.35l-3.22 2.46c-0.29,0.22 -0.57,0.37 -0.86,0.46 -0.27,0.09 -0.66,0.13 -1.16,0.13 -1.34,0 -2.36,-0.33 -3.07,-0.99 -0.71,-0.66 -1.06,-1.55 -1.06,-2.66 0,-1.04 0.25,-1.96 0.76,-2.75 0.5,-0.78 1.22,-1.36 2.15,-1.73 0.92,-0.38 3.08,-0.86 6.46,-1.46 -0.02,-1.32 -0.31,-2.3 -0.87,-2.95 -0.7,-0.82 -1.71,-1.23 -3.01,-1.23 -0.5,0 -0.97,0.06 -1.41,0.18 -0.43,0.12 -0.84,0.31 -1.21,0.55 -0.3,0.75 -0.58,1.46 -0.83,2.14l-0.86 -0.23zm8.19 2.46c-2.88,0.62 -4.71,1.21 -5.49,1.75 -0.78,0.55 -1.17,1.39 -1.17,2.53 0,0.77 0.23,1.39 0.67,1.85 0.45,0.46 1.02,0.69 1.73,0.69 0.78,0 1.52,-0.22 2.23,-0.65 0.71,-0.44 1.39,-1.09 2.03,-1.95l-0.03 -3.46 0.03 -0.76zm29.42 7.36l1.08 0c0.99,0 1.59,-0.21 1.8,-0.63 0.2,-0.42 0.31,-2.19 0.31,-5.33l0 -8.54c0,-0.53 -0.07,-2.24 -0.2,-5.14 -0.94,-0.08 -2.6,-0.12 -4.99,-0.12 -3.49,0 -5.82,0.04 -6.99,0.12 -0.08,1.54 -0.12,3.08 -0.12,4.62l0 9.38c0,0.74 0.02,1.62 0.08,2.63l0.07 1.71c0.01,0.59 0.2,0.95 0.57,1.09 0.37,0.14 0.77,0.21 1.22,0.21l1.05 0 0 0.99c-1.24,-0.06 -2.55,-0.1 -3.92,-0.1 -1.3,0 -3.04,0.04 -5.19,0.1l0 -0.99 0.96 0c1.14,0 1.8,-0.21 1.97,-0.63 0.17,-0.43 0.25,-2.1 0.25,-5l0 -9.35c0,-2.61 -0.09,-4.12 -0.27,-4.53 -0.18,-0.42 -0.77,-0.63 -1.76,-0.63l-1.15 0 0 -0.99c6.62,0.06 10.96,0.1 13.02,0.1 1.32,0 5.16,-0.04 11.52,-0.1l0 0.99 -1.2 0c-1.14,0 -1.75,0.23 -1.85,0.7 -0.09,0.46 -0.14,2.12 -0.14,4.97l0 8.6c0,3.05 0.08,4.78 0.22,5.22 0.14,0.43 0.74,0.65 1.77,0.65l1.2 0 0 0.99c-1.28,-0.06 -2.77,-0.1 -4.5,-0.1 -1.8,0 -3.39,0.04 -4.81,0.1l0 -0.99zm12.24 -9.82l0.02 -1.05 -0.02 -1.08 1.7 -0.96c0.77,-0.43 1.44,-0.73 2.02,-0.89 0.57,-0.17 1.19,-0.25 1.84,-0.25 1.43,0 2.59,0.31 3.47,0.96 0.88,0.64 1.4,1.46 1.58,2.46 0.12,0.74 0.2,2.59 0.23,5.55 0.02,2.79 0.08,4.32 0.19,4.62 0.1,0.29 0.36,0.43 0.77,0.43l1.21 0 0 1.02c-1.19,-0.06 -2.01,-0.1 -2.48,-0.1 -0.58,0 -1.36,0.04 -2.34,0.1l0.02 -1.38c0,-0.44 -0.01,-0.89 -0.02,-1.35l-3.22 2.46c-0.29,0.22 -0.57,0.37 -0.86,0.46 -0.27,0.09 -0.66,0.13 -1.16,0.13 -1.34,0 -2.36,-0.33 -3.07,-0.99 -0.71,-0.66 -1.06,-1.55 -1.06,-2.66 0,-1.04 0.25,-1.96 0.76,-2.75 0.5,-0.78 1.22,-1.36 2.15,-1.73 0.92,-0.38 3.08,-0.86 6.46,-1.46 -0.02,-1.32 -0.31,-2.3 -0.87,-2.95 -0.7,-0.82 -1.71,-1.23 -3.01,-1.23 -0.5,0 -0.97,0.06 -1.41,0.18 -0.43,0.12 -0.84,0.31 -1.21,0.55 -0.3,0.75 -0.58,1.46 -0.83,2.14l-0.86 -0.23zm8.19 2.46c-2.88,0.62 -4.71,1.21 -5.49,1.75 -0.78,0.55 -1.17,1.39 -1.17,2.53 0,0.77 0.23,1.39 0.67,1.85 0.45,0.46 1.02,0.69 1.73,0.69 0.78,0 1.52,-0.22 2.23,-0.65 0.71,-0.44 1.39,-1.09 2.03,-1.95l-0.03 -3.46 0.03 -0.76zm6.32 16.7l0.7 -2.42 0.36 0c0.28,0.33 0.56,0.57 0.84,0.74 0.28,0.16 0.57,0.25 0.86,0.25 0.65,0 1.24,-0.31 1.78,-0.93 0.53,-0.62 1.35,-2.36 2.46,-5.19 -0.46,-1.2 -1.37,-3.5 -2.73,-6.9l-1.44 -3.56 -1.17 -2.72c-0.36,-0.97 -0.91,-1.45 -1.63,-1.45l-0.63 0 0 -0.9c1.08,0.07 2.04,0.1 2.86,0.1 0.64,0 2.14,-0.03 4.49,-0.1l0 0.9 -1.16 0c-0.39,0 -0.68,0.07 -0.86,0.2 -0.18,0.14 -0.27,0.3 -0.27,0.5 0,0.17 0.1,0.53 0.3,1.08 1.04,2.88 2.28,5.97 3.7,9.27 1.36,-3.02 2.55,-5.93 3.57,-8.73 0.3,-0.82 0.45,-1.32 0.45,-1.49 0,-0.34 -0.35,-0.56 -1.06,-0.66l-1.15 -0.17 0 -0.9c1.22,0.07 2.3,0.1 3.25,0.1 0.9,0 1.8,-0.03 2.7,-0.1l0 0.9 -0.54 0c-0.24,0 -0.48,0.07 -0.73,0.2 -0.25,0.15 -0.45,0.34 -0.61,0.59 -0.33,0.52 -1.29,2.54 -2.88,6.04 -0.43,0.97 -1.54,3.58 -3.33,7.84 -1.56,3.59 -2.46,5.57 -2.66,5.92 -0.41,0.68 -0.92,1.21 -1.55,1.58 -0.63,0.37 -1.32,0.55 -2.05,0.55 -0.3,0 -0.6,-0.04 -0.92,-0.14 -0.32,-0.09 -0.64,-0.22 -0.95,-0.4zm17.82 -9.39l-0.51 -1.26 0.3 -0.22c1.8,1.15 3.52,1.72 5.17,1.72 1.22,0 2.11,-0.3 2.71,-0.92 0.6,-0.61 0.9,-1.44 0.9,-2.5 0,-1.13 -0.37,-1.96 -1.11,-2.48 -0.74,-0.53 -1.92,-0.79 -3.56,-0.79l-0.71 0 0 -0.96 0.51 0c2.72,0 4.07,-0.95 4.07,-2.87 0,-0.8 -0.27,-1.42 -0.82,-1.89 -0.55,-0.46 -1.32,-0.69 -2.31,-0.69 -2.17,0 -3.31,1.15 -3.46,3.45l-0.8 0 0 -0.5c0,-1.66 -0.02,-2.65 -0.06,-2.97 1.35,-0.79 2.93,-1.19 4.75,-1.19 1.7,0 3.03,0.31 3.99,0.92 0.95,0.61 1.42,1.41 1.42,2.41 0,0.86 -0.39,1.61 -1.2,2.26 -0.8,0.64 -1.89,1.11 -3.29,1.41 3.65,0 5.48,1.22 5.48,3.63 0,1.37 -0.56,2.52 -1.67,3.43 -1.12,0.91 -2.64,1.37 -4.56,1.37 -1.99,0 -3.73,-0.45 -5.24,-1.36zm16.04 -6.48c0.05,2.04 0.57,3.59 1.57,4.66 0.99,1.05 2.3,1.59 3.91,1.59 0.73,0 1.45,-0.13 2.16,-0.37 0.72,-0.23 1.43,-0.6 2.13,-1.08l0.27 0.23 -0.5 1.31c-0.86,0.5 -1.75,0.87 -2.66,1.12 -0.91,0.25 -1.85,0.38 -2.81,0.38 -2.11,0 -3.81,-0.67 -5.1,-2 -1.29,-1.34 -1.94,-3.14 -1.94,-5.43 0,-1.74 0.36,-3.25 1.09,-4.52 0.48,-0.85 1.36,-1.62 2.65,-2.34 1.28,-0.72 2.53,-1.07 3.74,-1.07 1.83,0 3.29,0.54 4.36,1.62 1.08,1.08 1.61,2.59 1.61,4.53l-0.03 0.92c-0.68,0.17 -1.33,0.27 -1.95,0.33 -1.11,0.08 -2.66,0.12 -4.62,0.12l-3.88 0zm0.03 -1.15c1.61,0.07 3.38,0.1 5.33,0.1 0.77,0 1.53,-0.04 2.25,-0.12l0 -0.87c0,-0.91 -0.18,-1.78 -0.54,-2.59 -0.23,-0.51 -0.63,-0.93 -1.2,-1.27 -0.57,-0.34 -1.23,-0.51 -1.98,-0.51 -1.16,0 -2.09,0.43 -2.79,1.28 -0.69,0.85 -1.05,2.18 -1.07,3.98zm-162.48 32.1l12.42 -12.95 -12.42 12.95zm-9.09 -3.81l21.87 -21.81 -21.87 21.81zm-6.52 -6.46l28.11 -27.8 -28.11 27.8zm20.14 11.96c13.26,0 24,-10.74 24,-24 0,-13.25 -10.74,-24 -24,-24 -13.25,0 -24,10.75 -24,24 0,13.26 10.75,24 24,24z"/>
  </g>
 </g>
</svg>
