<svg width="135" height="134" viewBox="0 0 13555 13428" fill=url(#grad3) stroke="white" stroke-width=none  xmlns="http://www.w3.org/2000/svg">
        <linearGradient id="grad3" x1="0%" x2="100%" y1="0%" y2="0%">
            <stop offset="0%" stop-color="#C4E0E5" />
            <stop offset="100%" stop-color="#4CA1AF" />
            </linearGradient>
        <path d="M1658.5 1725L1056 1174L9128 78L9352 214L8196 3606L4128 4190L3584 3606L7680 3062L8476 741.5L1658.5 1725Z" />
        <path d="M9756 342L9528 1066L12724 2806V11066L10504 9274.5L10524 4354L8692 3302L8324 3926L9756 4726V9558L12914 12157.5L13108 12202L13284 12182L13424 12090L13480 11954V2366L9756 342Z"/>
        <path d="M5960 5545.5L9536 5066L8608 4539L5593.5 4882L4884 4539H4128V4906L5204.5 5545.5V8986L5936 9350L5960 5545.5Z"/>
        <path d="M9528 9869.5V9178L5341.5 9710L4308 12474L972 10716L583 11265L4476 13350L12620 12234L11916 11650L5090 12546L5904 10382L9528 9869.5Z"/>
        <path d="M4952 10146L5204.5 9549.5L3786 8680L3760 4190L664 1302L420 1270L248 1334L102.5 1496.5L76 10998L328 11142L789 10422V2411.5L3040 4494V9078L4952 10146Z"/>
        </svg>